<?xml version="1.0" encoding="utf-8"?>
<!-- Generator: Adobe Illustrator 19.0.0, SVG Export Plug-In . SVG Version: 6.00 Build 0)  -->
<svg version="1.1" id="bold" xmlns="http://www.w3.org/2000/svg" xmlns:xlink="http://www.w3.org/1999/xlink" x="0px" y="0px"
	 viewBox="-41 164.9 512 512" style="enable-background:new -41 164.9 512 512;" xml:space="preserve">
<style type="text/css">
	.st0{fill:#1C7ED6;}
</style>
<g>
	<path class="st0" d="M343,655.6H44.3c-35.3,0-64-28.7-64-64V292.9c0-35.3,28.7-64,64-64H215c11.8,0,21.3,9.5,21.3,21.3
		c0,11.8-9.6,21.3-21.3,21.3H44.3c-11.8,0-21.3,9.6-21.3,21.3v298.7c0,11.8,9.6,21.3,21.3,21.3H343c11.8,0,21.3-9.6,21.3-21.3V420.9
		c0-11.8,9.6-21.3,21.3-21.3s21.3,9.5,21.3,21.3v170.7C407,626.8,378.3,655.6,343,655.6z"/>
</g>
<path class="st0" d="M428.3,186.2h-128c-8.6,0-16.4,5.2-19.7,13.2c-3.3,8-1.5,17.2,4.6,23.3l48.9,48.9L178.6,427.1
	c-8.3,8.3-8.3,21.8,0,30.2c4.2,4.2,9.6,6.3,15.1,6.3s10.9-2.1,15.1-6.3l155.6-155.6l48.9,48.9c4.1,4.1,9.5,6.3,15.1,6.3
	c2.8,0,5.5-0.5,8.2-1.6c8-3.3,13.2-11.1,13.2-19.7v-128C449.7,195.8,440.1,186.2,428.3,186.2L428.3,186.2z"/>
</svg>
